HIERARCHY
ROOT Hips
{
	OFFSET 0.000000 0.000000 0.000000 
	CHANNELS 6 Xposition Yposition Zposition Yrotation Zrotation Xrotation 
	JOINT Lumbar
	{
		OFFSET 0.000000 0.000000 0.000000 
		CHANNELS 3 Zrotation Xrotation Yrotation
		JOINT Neck
		{
			OFFSET 0.000000 0.445665 0.000000 
			CHANNELS 3 Zrotation Xrotation Yrotation
			End Site
			{
				OFFSET 0.000000 0.227535 0.000000 
			}
		}
		JOINT RightShoulder
		{
			OFFSET 0.019635 0.377685 0.194865 
			CHANNELS 3 Zrotation Xrotation Yrotation
			JOINT RightElbow
			{
				OFFSET 0.000000 -0.243375 0.000000 
				CHANNELS 2 Zrotation Yrotation
				JOINT RightWrist
				{
					OFFSET 0.000000 -0.264825 0.000000 
					CHANNELS 2 Zrotation Xrotation
					End Site
					{
						OFFSET 0.006600 -0.176220 0.000990 
					}
				}
			}
		}
		JOINT LeftShoulder
		{
			OFFSET 0.019635 0.377685 -0.194865 
			CHANNELS 3 Zrotation Xrotation Yrotation
			JOINT LeftElbow
			{
				OFFSET 0.000000 -0.243375 0.000000 
				CHANNELS 2 Zrotation Yrotation
				JOINT LeftWrist
				{
					OFFSET 0.000000 -0.264825 0.000000 
					CHANNELS 2 Zrotation Xrotation
					End Site
					{
						OFFSET 0.006600 -0.176220 -0.000990 
					}
				}
			}
		}
	}
	JOINT RightHip
	{
		OFFSET 0.052140 -0.069960 0.075570 
		CHANNELS 3 Zrotation Xrotation Yrotation
		JOINT RightKnee
		{
			OFFSET 0.000000 -0.402270 0.000000 
			CHANNELS 1 Zrotation
			JOINT RightAnkle
			{
				OFFSET 0.000000 -0.404085 0.000000 
				CHANNELS 3 Zrotation Xrotation Yrotation
				End Site
				{
					OFFSET 0.204105 -0.089430 0.008415 
				}
			}
		}
	}
	JOINT LeftHip
	{
		OFFSET 0.052140 -0.069960 -0.075570 
		CHANNELS 3 Zrotation Xrotation Yrotation
		JOINT LeftKnee
		{
			OFFSET 0.000000 -0.402270 0.000000 
			CHANNELS 1 Zrotation
			JOINT LeftAnkle
			{
				OFFSET 0.000000 -0.404085 0.000000 
				CHANNELS 3 Zrotation Xrotation Yrotation
				End Site
				{
					OFFSET 0.204105 -0.089430 -0.008415 
				}
			}
		}
	}
}
MOTION
Frames: 22
Frame Time: 0.02
0.00097 0.00329 0.01095 48.53461 -23.38154 -10.10431 36.90922 3.705 1.33831 21.84877 -5.14966 -0.4345 84.42384 -12.88501 48.6018 28.1426 98.97291 -16.76931 -8.71955 88.64812 2.73765 -58.63812 28.8271 -104.43699 -13.96135 8.60458 35.91779 0.21985 -4.98093 -19.19622 -6.55913 -3.2562 -2.35074 53.73206 6.43345 -6.4606 -39.80474 -7.12608 3.3959 2.48009
0.00314 0.0035 0.01017 48.53029 -23.5598 -10.13558 37.47623 3.72381 1.26466 21.23323 -4.97301 -0.43544 84.09007 -13.82789 48.41715 29.34772 98.96023 -16.69357 -8.5904 88.16662 3.98265 -57.67656 30.15882 -102.84453 -13.49169 8.69233 35.99862 0.27746 -5.15341 -19.20549 -6.53778 -3.23459 -2.3358 52.89057 6.37217 -5.46876 -39.10186 -7.06751 3.34571 2.44587
0.0053 0.0037 0.0094 48.52617 -23.73798 -10.16668 38.04216 3.74232 1.19075 20.61875 -4.7962 -0.43637 83.75519 -14.77001 48.23095 30.55439 98.94782 -16.61869 -8.46171 87.68372 5.22714 -56.71586 31.49221 -101.25599 -13.02328 8.77881 36.07949 0.33476 -5.32541 -19.21471 -6.51649 -3.21307 -2.3209 52.0511 6.31085 -4.47982 -38.39949 -7.00911 3.29568 2.41176
0.00746 0.0039 0.00863 48.5219 -23.91576 -10.19785 38.60754 3.76103 1.11724 20.00499 -4.61998 -0.43731 83.42218 -15.71028 48.04654 31.75648 98.93527 -16.5433 -8.33298 87.20341 6.4688 -55.75702 32.82064 -99.66828 -12.55503 8.86612 36.16011 0.39217 -5.49737 -19.22395 -6.4952 -3.19153 -2.306 51.21209 6.24972 -3.49102 -37.69847 -6.95072 3.24566 2.37765
0.00963 0.0041 0.00785 48.51732 -24.09345 -10.22921 39.17372 3.78013 1.04418 19.39041 -4.44418 -0.43824 83.09087 -16.65065 47.86445 32.9555 98.92224 -16.46679 -8.20374 86.72512 7.70985 -54.79783 34.14559 -98.07701 -12.08558 8.95509 36.24061 0.44991 -5.66977 -19.23322 -6.47388 -3.16991 -2.29105 50.37135 6.18872 -2.49935 -36.99767 -6.89216 3.19547 2.34344
0.01178 0.0043 0.00707 48.51413 -24.27266 -10.25974 39.73909 3.79739 0.9685 18.77617 -4.26527 -0.43918 82.7484 -17.59647 47.66963 34.17839 98.91102 -16.39529 -8.07618 86.23231 8.96153 -53.83386 35.49678 -96.49431 -11.6194 9.03637 36.32224 0.50629 -5.84094 -19.24235 -6.45264 -3.14858 -2.27627 49.53465 6.12672 -1.51623 -36.29212 -6.83409 3.14577 2.30953
0.01395 0.0045 0.00631 48.50824 -24.44858 -10.29194 40.30548 3.81831 0.89816 18.16209 -4.0928 -0.44011 82.4293 -18.52988 47.50065 35.35076 98.89655 -16.31394 -7.94547 85.77046 10.19011 -52.88134 36.79283 -94.8962 -11.14718 9.13291 36.40148 0.5654 -6.0144 -19.25177 -6.43125 -3.12671 -2.26117 48.69059 6.06681 -0.51707 -35.59664 -6.77509 3.09518 2.27506
0.01611 0.0047 0.00553 48.50471 -24.62758 -10.32252 40.8709 3.8359 0.82291 17.54753 -3.91444 -0.44105 82.08768 -19.47544 47.30787 36.5718 98.88441 -16.2414 -7.81751 85.2779 11.44061 -51.91683 38.14128 -93.31214 -10.68048 9.21561 36.48299 0.62188 -6.18574 -19.26089 -6.41001 -3.10531 -2.24635 47.85359 6.00495 0.46744 -34.89236 -6.71697 3.04537 2.24109
0.01826 0.00491 0.00473 48.50461 -24.81033 -10.35147 41.43561 3.84921 0.74149 16.93333 -3.72848 -0.44198 81.72184 -20.43387 47.08541 37.84552 98.87777 -16.18079 -7.69348 84.75565 12.71657 -50.94259 39.54921 -91.74504 -10.22051 9.28035 36.56706 0.67556 -6.3546 -19.26978 -6.38891 -3.08457 -2.23193 47.0237 5.94074 1.43394 -34.17479 -6.65983 2.99663 2.20777
0.02047 0.00508 0.00405 48.4864 -24.97147 -10.39086 42.00588 3.88654 0.69505 16.31988 -3.58501 -0.44291 81.50527 -21.31236 47.03187 38.7958 98.84749 -16.05503 -7.54856 84.42773 13.84214 -50.03906 40.6013 -90.07963 -9.72176 9.44528 36.63578 0.74662 -6.53805 -19.28041 -6.36685 -3.06031 -2.21535 46.1483 5.89013 2.50376 -33.52602 -6.59677 2.94205 2.17086
0.02254 0.00534 0.00313 48.50534 -25.17818 -10.40754 42.56334 3.87359 0.57521 15.70318 -3.35279 -0.44386 80.96768 -22.36293 46.62337 40.44077 98.86196 -16.06442 -7.4466 83.67514 15.287 -48.97725 42.41213 -88.62233 -9.30491 9.40093 36.73725 0.78021 -6.69052 -19.28708 -6.34692 -3.04328 -2.20324 45.37197 5.81081 3.3557 -32.73724 -6.54638 2.89959 2.14143
0.02427 0.00587 0.00153 48.63565 -25.51154 -10.36696 43.09442 3.71831 0.24879 15.09085 -2.8672 -0.44484 79.59002 -23.86257 45.21834 43.90862 99.04421 -16.46759 -7.47351 81.86348 17.59987 -47.5496 46.25974 -87.73616 -9.11448 8.75913 36.92659 0.71683 -6.7587 -19.28528 -6.33191 -3.04804 -2.20438 44.84463 5.65213 3.60313 -31.51755 -6.52948 2.89264 2.13339
0.02585 0.00648 -0.00029 48.80127 -25.89028 -10.30277 43.6109 3.51357 -0.15019 14.473 -2.29443 -0.44584 77.88285 -25.53869 43.46077 48.08681 99.26416 -17.00232 -7.54185 79.60479 20.23329 -45.9498 50.87551 -87.05944 -9.00617 7.91158 37.14921 0.61489 -6.79555 -19.27913 -6.31919 -3.05971 -2.20982 44.421 5.46482 3.63288 -30.166 -6.52551 2.89751 2.13273
0.02747 0.00705 -0.00199 48.94489 -26.24732 -10.24584 44.12851 3.33406 -0.51278 13.84867 -1.76788 -0.44683 76.29923 -27.14995 41.87947 51.99799 99.43614 -17.46176 -7.58367 77.4823 22.72747 -44.38466 55.1722 -86.28619 -8.85895 7.17314 37.35792 0.52662 -6.84634 -19.27329 -6.30604 -3.06696 -2.21267 43.96478 5.29086 3.7667 -28.90515 -6.51649 2.89542 2.12808
0.02922 0.00764 -0.00377 49.11473 -26.60936 -10.20284 44.66982 3.14196 -0.89063 13.2613 -1.21289 -0.44783 74.82375 -28.69937 40.23064 55.68638 99.73396 -17.9865 -7.65674 75.64505 25.20184 -43.00515 59.3528 -85.517 -8.71787 6.36791 37.56151 0.45396 -6.89863 -19.27414 -6.29039 -3.07964 -2.21822 43.44728 5.11502 3.87886 -27.51369 -6.50414 2.89977 2.12601
0.03066 0.00821 -0.00544 49.23708 -26.97129 -10.12606 45.15768 2.96545 -1.25304 12.59686 -0.69698 -0.44881 73.04717 -30.41622 38.63769 59.99288 99.78416 -18.40694 -7.67618 73.1034 27.78503 -41.19567 63.94588 -84.79154 -8.5844 5.65365 37.78373 0.34036 -6.94 -19.26044 -6.28042 -3.08264 -2.21913 43.08212 4.93679 3.98391 -26.36354 -6.50164 2.89385 2.12048
0.03132 0.00872 -0.00673 49.23033 -27.32541 -9.95491 45.50694 2.83493 -1.56218 11.71075 -0.30639 -0.44974 70.50139 -32.57827 37.29661 65.95082 99.09246 -18.50204 -7.5229 68.76684 30.65817 -38.26492 69.583 -84.11327 -8.44347 5.23646 38.04816 0.11736 -6.96203 -19.20392 -6.28606 -3.05733 -2.20639 43.11104 4.75501 4.12877 -25.90849 -6.52435 2.85371 2.1022
0.03167 0.0092 -0.00791 49.17279 -27.67715 -9.75193 45.80185 2.72344 -1.85205 10.74936 0.04101 -0.45065 67.6674 -34.89714 36.02161 72.48249 98.15865 -18.48847 -7.31662 63.73143 33.61496 -34.90453 75.58952 -83.47595 -8.30896 4.91887 38.33025 -0.14431 -6.97341 -19.13354 -6.29727 -3.02206 -2.1888 43.28993 4.5726 4.27284 -25.70159 -6.55632 2.80334 2.08044
0.03215 0.00967 -0.00914 49.13112 -28.02766 -9.56791 46.11814 2.60935 -2.14593 9.82887 0.40574 -0.45157 64.97767 -37.12794 34.70947 78.67547 97.3687 -18.52808 -7.14452 58.98672 36.49132 -31.72325 81.36772 -82.83437 -8.17692 4.55864 38.60508 -0.38458 -6.98786 -19.07203 -6.30561 -2.9912 -2.17323 43.4009 4.39307 4.41341 -25.38338 -6.58329 2.75963 2.06121
0.03269 0.01022 -0.01035 49.12007 -28.38963 -9.36377 46.44816 2.46834 -2.46191 8.87914 0.78363 -0.4525 62.2208 -39.4386 33.41638 85.22837 96.44028 -18.55659 -6.93256 54.33139 39.56613 -28.59775 87.43449 -82.13924 -8.02479 4.17998 38.87829 -0.64276 -7.00944 -18.99979 -6.31542 -2.96089 -2.15843 43.51438 4.20148 4.56303 -25.05419 -6.61401 2.70797 2.0383
0.03303 0.01061 -0.01159 49.03407 -28.72641 -9.19468 46.7366 2.38814 -2.72693 7.9735 1.12218 -0.4534 59.53908 -41.61441 32.10222 91.15107 95.73849 -18.5803 -6.78886 49.3405 42.23302 -25.26426 92.9697 -81.563 -7.9152 3.86627 39.15809 -0.87183 -7.01312 -18.9463 -6.32352 -2.92721 -2.14098 43.65705 4.03535 4.69601 -24.80874 -6.63898 2.67014 2.02205
0.03291 0.01056 -0.01301 48.74172 -28.99522 -9.12707 46.92557 2.47527 -2.84993 7.19995 1.36665 -0.45423 57.14325 -43.40714 30.73056 95.2521 95.75243 -18.61923 -6.86035 43.50743 43.83837 -21.3959 97.01143 -81.30108 -7.91942 3.70628 39.45604 -1.015 -6.97826 -18.95125 -6.32507 -2.88448 -2.11598 43.84187 3.93868 4.78785 -24.73287 -6.64536 2.67422 2.02553
